<svg width="91" height="63" viewBox="0 0 91 63" fill="none" xmlns="http://www.w3.org/2000/svg">
<g clip-path="url(#clip0_447_2884)">
<path d="M32.358 22.0873H10.2706V27.6092H32.358V22.0873Z" fill="black"/>
<path d="M42.6839 11.0437H37.162V5.52185H0V0H42.6839V11.0437Z" fill="black"/>
<path d="M42.6839 49.6966H0V44.1747H37.162V38.6529H42.6839V49.6966Z" fill="black"/>
<path d="M1.4909 59.8016V61.2925H5.35619C5.41141 61.2925 5.52185 61.4029 5.52185 61.4581V62.3969C5.52185 62.4521 5.41141 62.5625 5.35619 62.5625H0.110437C0.0552185 62.5625 0 62.5073 0 62.4521V56.102C0 56.0467 0.0552185 55.9915 0.110437 55.9915H5.30097C5.35619 55.9915 5.46663 56.102 5.46663 56.1572V57.0959C5.46663 57.1511 5.35619 57.2615 5.30097 57.2615H1.4909V58.5868H4.96966C5.02488 58.5868 5.13532 58.6972 5.13532 58.7524V59.6912C5.13532 59.7464 5.02488 59.8568 4.96966 59.8568H1.4909V59.8016Z" fill="black"/>
<path d="M11.4302 61.2925H14.6881C14.7433 61.2925 14.8538 61.4029 14.8538 61.4581V62.3969C14.8538 62.4521 14.7433 62.5625 14.6881 62.5625H10.0498C9.99455 62.5625 9.93933 62.5073 9.93933 62.4521V56.102C9.93933 56.0467 9.99455 55.9915 10.0498 55.9915H11.2646C11.3198 55.9915 11.375 56.0467 11.375 56.102V61.2925H11.4302Z" fill="black"/>
<path d="M20.5413 62.3968C20.5413 62.4521 20.4861 62.5073 20.4308 62.5073H19.216C19.1608 62.5073 19.1056 62.4521 19.1056 62.3968V56.0467C19.1056 55.9915 19.1608 55.9363 19.216 55.9363H20.4308C20.4861 55.9363 20.5413 55.9915 20.5413 56.0467V62.3968Z" fill="black"/>
<path d="M24.7932 62.5073L28.3824 57.8689C28.6584 57.5376 28.9345 57.2063 28.9345 57.2063V57.1511H25.1245C25.0692 57.1511 24.9588 57.0406 24.9588 56.9854V56.0467C24.9588 55.9915 25.0692 55.881 25.1245 55.881H31.6402L27.9406 60.6851C27.7197 60.9611 27.4436 61.2372 27.4436 61.2372H31.3641C31.4194 61.2372 31.5298 61.3477 31.5298 61.4029V62.3416C31.5298 62.3968 31.4194 62.5073 31.3641 62.5073H24.7932Z" fill="black"/>
<path d="M40.6408 61.4029H37.4381L36.9412 62.3969C36.8859 62.5073 36.8307 62.5625 36.7203 62.5625H35.395C35.3398 62.5625 35.2846 62.5073 35.2846 62.5073C35.2846 62.5073 35.2846 62.3969 35.3398 62.3969L38.4321 55.9915H39.5916L42.6839 62.3969C42.6839 62.4521 42.7391 62.5073 42.7391 62.5073C42.7391 62.5073 42.7391 62.5625 42.6287 62.5625H41.3034C41.193 62.5625 41.1378 62.5625 41.0825 62.3969L40.6408 61.4029ZM37.9351 60.2433H40.1438L39.5364 59.0285C39.3156 58.5316 39.0947 57.8689 39.0947 57.8689H39.0395C39.0395 57.8689 38.8186 58.5868 38.5977 59.0285L37.9351 60.2433Z" fill="black"/>
<path d="M51.7397 62.5073L55.3289 57.8689C55.605 57.5376 55.8811 57.2063 55.8811 57.2063V57.1511H52.071C52.0158 57.1511 51.9053 57.0406 51.9053 56.9854V56.0467C51.9053 55.9915 52.0158 55.881 52.071 55.881H58.5868L54.8871 60.6851C54.6663 60.9611 54.3902 61.2372 54.3902 61.2372H58.3107C58.3659 61.2372 58.4763 61.3477 58.4763 61.4029V62.3416C58.4763 62.3968 58.3659 62.5073 58.3107 62.5073H51.7397Z" fill="black"/>
<path d="M63.0043 62.5625C62.9491 62.5625 62.8939 62.5073 62.8939 62.4521V56.102C62.8939 56.0467 62.9491 55.9915 63.0043 55.9915H65.8204C67.9187 55.9915 69.4649 57.2615 69.4649 59.3046C69.4649 61.2925 68.1396 62.6177 65.8204 62.6177H63.0043V62.5625ZM64.3848 57.2063V61.2925H65.8204C67.2009 61.2925 67.974 60.5194 67.974 59.2494C67.974 57.9794 67.0905 57.2063 65.8204 57.2063H64.3848Z" fill="black"/>
<path d="M73.8824 56.0467C73.8824 55.9915 73.9376 55.9363 73.9928 55.9363H77.0851C78.6864 55.9363 79.846 56.8198 79.846 58.2555C79.846 59.2494 79.2386 59.912 78.3551 60.2433C78.3551 60.2433 78.576 60.4642 78.6864 60.6851L79.7908 62.3416C79.846 62.3968 79.846 62.4521 79.846 62.5073C79.846 62.5625 79.846 62.5625 79.7355 62.5625H78.2446C78.1894 62.5625 78.1342 62.5073 78.079 62.4521L76.7537 60.4642H75.3181V62.3968C75.3181 62.4521 75.2628 62.5073 75.2076 62.5073H73.9928C73.9376 62.5073 73.8824 62.4521 73.8824 62.3968V56.0467ZM75.3733 57.2063V59.3046H76.9746C77.8029 59.3046 78.3551 58.9181 78.3551 58.2555C78.3551 57.5928 77.8029 57.2063 76.9746 57.2063H75.3733Z" fill="black"/>
<path d="M89.4539 56.0467C89.4539 55.9915 89.5091 55.9363 89.5644 55.9363H90.7792C90.8344 55.9363 90.8896 55.9915 90.8896 56.0467V59.3598C90.8896 61.5133 89.5644 62.6177 87.5213 62.6177C85.4782 62.6177 84.153 61.4581 84.153 59.3598V56.0467C84.153 55.9915 84.2082 55.9363 84.2634 55.9363H85.4782C85.5334 55.9363 85.5886 55.9915 85.5886 56.0467V59.3598C85.5886 60.7403 86.2513 61.4029 87.4661 61.4029C88.6809 61.4029 89.3435 60.7403 89.3435 59.3598V56.0467H89.4539Z" fill="black"/>
<path d="M75.3812 15.0992L59.7632 30.7172L63.6677 34.6217L79.2857 19.0037L75.3812 15.0992Z" fill="black"/>
<path d="M53.7276 11.0436H48.2057V-6.10352e-05H90.8896V5.52179H53.7276V11.0436Z" fill="black"/>
<path d="M90.8896 49.6965H48.2057V44.1747H85.3678V38.6528H90.8896V49.6965Z" fill="black"/>
</g>
<defs>
<clipPath id="clip0_447_2884">
<rect width="91" height="62.673" fill="white"/>
</clipPath>
</defs>
</svg>
