<svg width="85" height="57" viewBox="0 0 85 57" fill="none" xmlns="http://www.w3.org/2000/svg">
<g clip-path="url(#clip0_447_2863)">
<path d="M0 7.63138C0 2.64066 3.53772 0 7.58084 0C11.4597 0 14.1193 2.06578 14.4857 5.21814L10.6953 5.98886C10.5837 5.22909 10.2038 4.53436 9.62448 4.03033C9.04513 3.52629 8.30452 3.24623 7.53662 3.24081C5.51506 3.24081 3.79042 4.7317 3.79042 7.66296C3.79042 10.5942 5.48979 12.0472 7.53662 12.0472C8.24781 12.0843 8.94801 11.86 9.50536 11.4167C10.0627 10.9734 10.4387 10.3416 10.5626 9.6403L14.4225 10.5184C13.7213 13.5192 11.1628 15.288 7.56189 15.288C3.44928 15.2501 0 12.6158 0 7.63138Z" fill="black"/>
<path d="M15.4523 7.63139C15.4523 3.20924 18.7499 1.7134e-05 23.2289 1.7134e-05C24.2443 -0.0346716 25.256 0.138372 26.2021 0.508541C27.1482 0.87871 28.0088 1.43821 28.731 2.15273C29.4532 2.86725 30.0219 3.72174 30.4021 4.66383C30.7824 5.60591 30.9663 6.61574 30.9424 7.63139C30.9654 8.64625 30.7809 9.65511 30.4002 10.5961C30.0194 11.5371 29.4505 12.3905 28.7283 13.1038C28.0061 13.8172 27.1458 14.3755 26.2001 14.7446C25.2545 15.1136 24.2434 15.2857 23.2289 15.2501C18.7499 15.2501 15.4523 12.0156 15.4523 7.63139ZM27.152 7.63139C27.152 5.10445 25.5095 3.20924 23.21 3.20924C20.9105 3.20924 19.2427 5.10445 19.2427 7.63139C19.2427 10.1583 20.8852 12.0156 23.21 12.0156C25.5348 12.0156 27.152 10.1457 27.152 7.63139Z" fill="black"/>
<path d="M32.4586 0.170593H38.776C41.9347 0.170593 43.931 2.0658 43.931 4.94021C43.931 7.81461 41.9094 9.71613 38.776 9.71613H36.249V15.0859H32.4586V0.170593ZM38.3843 6.48796C39.5214 6.47532 40.1532 5.90044 40.1532 4.94021C40.1532 3.97997 39.5214 3.4114 38.3843 3.4114H36.2743V6.47533L38.3843 6.48796Z" fill="black"/>
<path d="M45.1186 0.170593H48.909V15.0859H45.1186V0.170593Z" fill="black"/>
<path d="M51.0632 0.170593H54.8537V15.0859H51.0632V0.170593Z" fill="black"/>
<path d="M57.0079 0.170593H60.7983V15.0859H57.0079V0.170593Z" fill="black"/>
<path d="M0.638062 21.0179H11.1438V24.2587H4.45375V26.4698H9.71611V29.7106H4.45375V32.6987H11.4029V35.9332H0.663332L0.638062 21.0179Z" fill="black"/>
<path d="M21.1632 35.9332L18.4341 31.3531L15.705 35.9332H11.6745L16.4315 27.967L12.2746 21.0179H16.2799L18.4341 24.6188L20.563 21.0179H24.5935L20.4367 27.967L25.1684 35.9142L21.1632 35.9332Z" fill="black"/>
<path d="M26.1476 21.0179H32.4965C35.6552 21.0179 37.6578 22.9131 37.6578 25.7875C37.6578 28.6619 35.6299 30.5634 32.4965 30.5634H29.9696V35.9332H26.1792L26.1476 21.0179ZM32.0733 27.3353C33.2041 27.3226 33.8358 26.7477 33.8358 25.7875C33.8358 24.8273 33.2041 24.2587 32.048 24.2587H29.9633V27.3226L32.0733 27.3353Z" fill="black"/>
<path d="M38.8076 21.0179H42.598V32.6987H49.0985V35.9332H38.8076V21.0179Z" fill="black"/>
<path d="M50.1662 21.0179H53.9566V35.9332H50.1662V21.0179Z" fill="black"/>
<path d="M55.4728 28.4787C55.4728 23.4879 59.0105 20.8473 63.0536 20.8473C66.9325 20.8473 69.5984 22.9131 69.9585 26.0654L66.1681 26.8361C66.0577 26.0758 65.6782 25.3804 65.0986 24.8761C64.519 24.3718 63.7777 24.0922 63.0094 24.0881C60.9815 24.0881 59.2569 25.579 59.2569 28.5103C59.2569 31.4415 60.9626 32.8945 63.0094 32.8945C63.728 32.9339 64.436 32.7069 64.9978 32.257C65.5596 31.8071 65.9357 31.1659 66.0544 30.456L69.908 31.3341C69.213 34.3349 66.6861 36.0974 63.0599 36.0974C58.9284 36.0974 55.4728 33.4631 55.4728 28.4787Z" fill="black"/>
<path d="M79.4914 33.103H74.5702L73.591 35.9332H69.6489L75.2082 21.0179H78.8344L84.3747 35.9332H80.4706L79.4914 33.103ZM73.8689 16.8358H76.339C76.339 17.417 76.5728 17.7329 77.0213 17.7329C77.4698 17.7329 77.7225 17.417 77.7225 16.8358H80.1989C80.1989 17.6736 79.8661 18.477 79.2738 19.0693C78.6814 19.6617 77.878 19.9945 77.0402 19.9945C76.2025 19.9945 75.3991 19.6617 74.8067 19.0693C74.2144 18.477 73.8816 17.6736 73.8816 16.8358H73.8689ZM78.4048 29.9443L77.0213 25.9897L75.6567 29.9507L78.4048 29.9443Z" fill="black"/>
<path d="M0.638062 41.8652H4.42848V56.7805H0.638062V41.8652Z" fill="black"/>
<path d="M5.8183 52.1562L9.09701 51.1959C9.15443 51.874 9.46025 52.5069 9.95577 52.9733C10.4513 53.4397 11.1016 53.7066 11.7819 53.7229C12.8937 53.7229 13.6392 53.1922 13.6392 52.4025C13.6392 49.9514 6.24156 51.4865 6.24156 45.9462C6.24156 43.4698 8.67375 41.663 11.5924 41.663C14.511 41.663 16.899 43.2171 17.4549 45.5166L14.0435 46.9443C13.949 46.3624 13.6505 45.8331 13.2014 45.4511C12.7523 45.0692 12.1819 44.8595 11.5924 44.8596C10.6321 44.8596 10.0383 45.2639 10.0383 45.9209C10.0383 47.9678 17.4549 46.1799 17.4549 52.2952C17.4549 55.0685 15.1111 56.9195 11.6113 56.9195C8.61057 56.9447 6.03941 54.8663 5.8183 52.1562Z" fill="black"/>
<path d="M21.7823 45.106H17.5181V41.8652H29.8559V45.106H25.6232V56.7805H21.8328L21.7823 45.106Z" fill="black"/>
<path d="M29.6031 49.326C29.6031 44.9354 32.9071 41.6946 37.3798 41.6946C38.4 41.6653 39.4158 41.8409 40.367 42.211C41.3181 42.5811 42.1854 43.1383 42.9174 43.8496C43.6494 44.5608 44.2313 45.4117 44.6287 46.3518C45.026 47.2919 45.2307 48.3022 45.2307 49.3228C45.2307 50.3435 45.026 51.3538 44.6287 52.2939C44.2313 53.234 43.6494 54.0849 42.9174 54.7961C42.1854 55.5074 41.3181 56.0645 40.367 56.4347C39.4158 56.8048 38.4 56.9804 37.3798 56.9511C32.9071 56.9447 29.6031 53.7103 29.6031 49.326ZM41.3029 49.326C41.3029 46.7991 39.6604 44.9354 37.3609 44.9354C35.0614 44.9354 33.3936 46.8306 33.3936 49.326C33.3936 51.8214 35.0361 53.7103 37.3609 53.7103C39.6857 53.7103 41.3029 51.8403 41.3029 49.326Z" fill="black"/>
<path d="M54.8537 56.7805L51.8719 51.1959H50.4441V56.7805H46.6537L46.6095 41.8652H52.731C55.7128 41.8652 57.6523 43.6972 57.6523 46.5337C57.6589 47.2799 57.4814 48.0163 57.1354 48.6775C56.7893 49.3386 56.2855 49.9043 55.6686 50.3241L59.3579 56.7615L54.8537 56.7805ZM50.4315 47.9362H52.0108C53.1796 47.9362 53.8176 47.3992 53.8176 46.5084C53.8176 45.6177 53.1859 45.0807 52.0108 45.0807H50.4315V47.9362Z" fill="black"/>
<path d="M60.4003 41.8652H64.1907V56.7805H60.4003V41.8652Z" fill="black"/>
<path d="M75.0187 53.9503H70.0975L69.112 56.7805H65.1699L70.7355 41.8652H74.3554L79.9526 56.7805H75.9979L75.0187 53.9503ZM73.9321 50.7916L72.5486 46.8369L71.1841 50.7979L73.9321 50.7916Z" fill="black"/>
</g>
<defs>
<clipPath id="clip0_447_2863">
<rect width="84.4" height="56.9574" fill="white"/>
</clipPath>
</defs>
</svg>
