<svg width="150" height="19" preserveAspectRatio="xMidYMid meet" x="0" y="0" viewBox="0 0 150 19" fill="none" xmlns="http://www.w3.org/2000/svg">
<path d="M0.636031 17.9573V1.15727H6.06003C7.37203 1.15727 8.44403 1.37327 9.27603 1.80527C10.108 2.23727 10.724 2.82927 11.124 3.58127C11.524 4.33327 11.724 5.16527 11.724 6.07727C11.724 7.13327 11.436 8.08527 10.86 8.93327C10.3 9.78128 9.42003 10.3813 8.22003 10.7333L11.892 17.9573H9.51603L6.10803 11.0213H5.96403H2.65203V17.9573H0.636031ZM2.65203 9.43727H5.91603C7.21203 9.43727 8.15603 9.12527 8.74803 8.50127C9.34003 7.87727 9.63603 7.07727 9.63603 6.10127C9.63603 5.10927 9.34003 4.32527 8.74803 3.74928C8.17203 3.15728 7.22003 2.86128 5.89203 2.86128H2.65203V9.43727ZM18.408 18.2453C17.272 18.2453 16.264 17.9893 15.384 17.4773C14.504 16.9493 13.808 16.2213 13.296 15.2933C12.8 14.3653 12.552 13.2693 12.552 12.0053C12.552 10.7573 12.8 9.66928 13.296 8.74128C13.792 7.79728 14.48 7.06927 15.36 6.55727C16.256 6.02927 17.288 5.76528 18.456 5.76528C19.608 5.76528 20.6 6.02927 21.432 6.55727C22.28 7.06927 22.928 7.74927 23.376 8.59728C23.824 9.44528 24.048 10.3573 24.048 11.3333C24.048 11.5093 24.04 11.6853 24.024 11.8613C24.024 12.0373 24.024 12.2373 24.024 12.4613H14.544C14.592 13.3733 14.8 14.1333 15.168 14.7413C15.552 15.3333 16.024 15.7813 16.584 16.0853C17.16 16.3893 17.768 16.5413 18.408 16.5413C19.24 16.5413 19.936 16.3493 20.496 15.9653C21.056 15.5813 21.464 15.0613 21.72 14.4053H23.712C23.392 15.5093 22.776 16.4293 21.864 17.1653C20.968 17.8853 19.816 18.2453 18.408 18.2453ZM18.408 7.46928C17.448 7.46928 16.592 7.76528 15.84 8.35728C15.104 8.93327 14.68 9.78128 14.568 10.9013H22.056C22.008 9.82927 21.64 8.98927 20.952 8.38127C20.264 7.77328 19.416 7.46928 18.408 7.46928ZM30.3201 18.2453C28.8961 18.2453 27.7121 17.8853 26.7681 17.1653C25.8241 16.4453 25.2721 15.4693 25.1121 14.2373H27.1761C27.3041 14.8613 27.6321 15.4053 28.1601 15.8693C28.7041 16.3173 29.4321 16.5413 30.3441 16.5413C31.1921 16.5413 31.8161 16.3653 32.2161 16.0133C32.6161 15.6453 32.8161 15.2133 32.8161 14.7173C32.8161 13.9973 32.5521 13.5173 32.0241 13.2773C31.5121 13.0373 30.7841 12.8213 29.8401 12.6293C29.2001 12.5013 28.5601 12.3173 27.9201 12.0773C27.2801 11.8373 26.7441 11.5013 26.3121 11.0693C25.8801 10.6213 25.6641 10.0373 25.6641 9.31728C25.6641 8.27728 26.0481 7.42928 26.8161 6.77327C27.6001 6.10127 28.6561 5.76528 29.9841 5.76528C31.2481 5.76528 32.2801 6.08527 33.0801 6.72527C33.8961 7.34927 34.3681 8.24528 34.4961 9.41328H32.5041C32.4241 8.80527 32.1601 8.33327 31.7121 7.99727C31.2801 7.64528 30.6961 7.46928 29.9601 7.46928C29.2401 7.46928 28.6801 7.62128 28.2801 7.92528C27.8961 8.22927 27.7041 8.62927 27.7041 9.12527C27.7041 9.60527 27.9521 9.98127 28.4481 10.2533C28.9601 10.5253 29.6481 10.7573 30.5121 10.9493C31.2481 11.1093 31.9441 11.3093 32.6001 11.5493C33.2721 11.7733 33.8161 12.1173 34.2321 12.5813C34.6641 13.0293 34.8801 13.6853 34.8801 14.5493C34.8961 15.6213 34.4881 16.5093 33.6561 17.2133C32.8401 17.9013 31.7281 18.2453 30.3201 18.2453ZM40.965 17.9573C39.877 17.9573 39.021 17.6933 38.397 17.1653C37.773 16.6373 37.461 15.6853 37.461 14.3093V7.75728H35.397V6.05327H37.461L37.725 3.19728H39.477V6.05327H42.981V7.75728H39.477V14.3093C39.477 15.0613 39.629 15.5733 39.933 15.8453C40.237 16.1013 40.773 16.2293 41.541 16.2293H42.789V17.9573H40.965ZM48.9263 18.2453C47.5183 18.2453 46.3983 17.8213 45.5663 16.9733C44.7343 16.1093 44.3183 14.7893 44.3183 13.0133V6.05327H46.3343V12.7973C46.3343 15.2773 47.3503 16.5173 49.3823 16.5173C50.4223 16.5173 51.2783 16.1493 51.9503 15.4133C52.6383 14.6613 52.9823 13.5973 52.9823 12.2213V6.05327H54.9983V17.9573H53.1743L53.0303 15.8213C52.6623 16.5733 52.1103 17.1653 51.3743 17.5973C50.6543 18.0293 49.8383 18.2453 48.9263 18.2453ZM57.3567 17.9573V0.677275H59.3727V17.9573H57.3567ZM72.4605 18.2453C71.3245 18.2453 70.3165 17.9893 69.4365 17.4773C68.5565 16.9493 67.8605 16.2213 67.3485 15.2933C66.8525 14.3653 66.6045 13.2693 66.6045 12.0053C66.6045 10.7573 66.8525 9.66928 67.3485 8.74128C67.8445 7.79728 68.5325 7.06927 69.4125 6.55727C70.3085 6.02927 71.3405 5.76528 72.5085 5.76528C73.6605 5.76528 74.6525 6.02927 75.4845 6.55727C76.3325 7.06927 76.9805 7.74927 77.4285 8.59728C77.8765 9.44528 78.1005 10.3573 78.1005 11.3333C78.1005 11.5093 78.0925 11.6853 78.0765 11.8613C78.0765 12.0373 78.0765 12.2373 78.0765 12.4613H68.5965C68.6445 13.3733 68.8525 14.1333 69.2205 14.7413C69.6045 15.3333 70.0765 15.7813 70.6365 16.0853C71.2125 16.3893 71.8205 16.5413 72.4605 16.5413C73.2925 16.5413 73.9885 16.3493 74.5485 15.9653C75.1085 15.5813 75.5165 15.0613 75.7725 14.4053H77.7645C77.4445 15.5093 76.8285 16.4293 75.9165 17.1653C75.0205 17.8853 73.8685 18.2453 72.4605 18.2453ZM72.4605 7.46928C71.5005 7.46928 70.6445 7.76528 69.8925 8.35728C69.1565 8.93327 68.7325 9.78128 68.6205 10.9013H76.1085C76.0605 9.82927 75.6925 8.98927 75.0045 8.38127C74.3165 7.77328 73.4685 7.46928 72.4605 7.46928ZM86.4282 3.41328C86.0282 3.41328 85.6922 3.28527 85.4202 3.02927C85.1642 2.75727 85.0362 2.42127 85.0362 2.02127C85.0362 1.63727 85.1642 1.31727 85.4202 1.06127C85.6922 0.805274 86.0282 0.677275 86.4282 0.677275C86.8122 0.677275 87.1402 0.805274 87.4122 1.06127C87.6842 1.31727 87.8202 1.63727 87.8202 2.02127C87.8202 2.42127 87.6842 2.75727 87.4122 3.02927C87.1402 3.28527 86.8122 3.41328 86.4282 3.41328ZM85.4202 17.9573V6.05327H87.4362V17.9573H85.4202ZM94.5464 18.2453C93.1224 18.2453 91.9384 17.8853 90.9944 17.1653C90.0504 16.4453 89.4984 15.4693 89.3384 14.2373H91.4024C91.5304 14.8613 91.8584 15.4053 92.3864 15.8693C92.9304 16.3173 93.6584 16.5413 94.5704 16.5413C95.4184 16.5413 96.0424 16.3653 96.4424 16.0133C96.8424 15.6453 97.0424 15.2133 97.0424 14.7173C97.0424 13.9973 96.7784 13.5173 96.2504 13.2773C95.7384 13.0373 95.0104 12.8213 94.0664 12.6293C93.4264 12.5013 92.7864 12.3173 92.1464 12.0773C91.5064 11.8373 90.9704 11.5013 90.5384 11.0693C90.1064 10.6213 89.8904 10.0373 89.8904 9.31728C89.8904 8.27728 90.2744 7.42928 91.0424 6.77327C91.8264 6.10127 92.8824 5.76528 94.2104 5.76528C95.4744 5.76528 96.5064 6.08527 97.3064 6.72527C98.1224 7.34927 98.5944 8.24528 98.7224 9.41328H96.7304C96.6504 8.80527 96.3864 8.33327 95.9384 7.99727C95.5064 7.64528 94.9224 7.46928 94.1864 7.46928C93.4664 7.46928 92.9064 7.62128 92.5064 7.92528C92.1224 8.22927 91.9304 8.62927 91.9304 9.12527C91.9304 9.60527 92.1784 9.98127 92.6744 10.2533C93.1864 10.5253 93.8744 10.7573 94.7384 10.9493C95.4744 11.1093 96.1704 11.3093 96.8264 11.5493C97.4984 11.7733 98.0424 12.1173 98.4584 12.5813C98.8904 13.0293 99.1064 13.6853 99.1064 14.5493C99.1224 15.6213 98.7144 16.5093 97.8824 17.2133C97.0664 17.9013 95.9544 18.2453 94.5464 18.2453ZM105.191 17.9573C104.103 17.9573 103.247 17.6933 102.623 17.1653C101.999 16.6373 101.687 15.6853 101.687 14.3093V7.75728H99.6233V6.05327H101.687L101.951 3.19728H103.703V6.05327H107.207V7.75728H103.703V14.3093C103.703 15.0613 103.855 15.5733 104.159 15.8453C104.463 16.1013 104.999 16.2293 105.767 16.2293H107.015V17.9573H105.191ZM113.904 18.2453C112.784 18.2453 111.776 17.9893 110.88 17.4773C109.984 16.9653 109.272 16.2453 108.744 15.3173C108.232 14.3733 107.976 13.2693 107.976 12.0053C107.976 10.7413 108.24 9.64527 108.768 8.71727C109.296 7.77327 110.008 7.04527 110.904 6.53328C111.816 6.02128 112.832 5.76528 113.952 5.76528C115.072 5.76528 116.08 6.02128 116.976 6.53328C117.872 7.04527 118.576 7.77327 119.088 8.71727C119.616 9.64527 119.88 10.7413 119.88 12.0053C119.88 13.2693 119.616 14.3733 119.088 15.3173C118.56 16.2453 117.84 16.9653 116.928 17.4773C116.032 17.9893 115.024 18.2453 113.904 18.2453ZM113.904 16.5173C114.592 16.5173 115.232 16.3493 115.824 16.0133C116.416 15.6773 116.896 15.1733 117.264 14.5013C117.632 13.8293 117.816 12.9973 117.816 12.0053C117.816 11.0133 117.632 10.1813 117.264 9.50927C116.912 8.83727 116.44 8.33327 115.848 7.99727C115.256 7.66127 114.624 7.49327 113.952 7.49327C113.264 7.49327 112.624 7.66127 112.032 7.99727C111.44 8.33327 110.96 8.83727 110.592 9.50927C110.224 10.1813 110.04 11.0133 110.04 12.0053C110.04 12.9973 110.224 13.8293 110.592 14.5013C110.96 15.1733 111.432 15.6773 112.008 16.0133C112.6 16.3493 113.232 16.5173 113.904 16.5173ZM121.724 17.9573V6.05327H123.548L123.716 8.33327C124.084 7.54927 124.644 6.92527 125.396 6.46127C126.148 5.99727 127.076 5.76528 128.18 5.76528V7.87727H127.628C126.924 7.87727 126.276 8.00528 125.684 8.26128C125.092 8.50127 124.62 8.91727 124.268 9.50927C123.916 10.1013 123.74 10.9173 123.74 11.9573V17.9573H121.724ZM130.706 3.41328C130.306 3.41328 129.97 3.28527 129.698 3.02927C129.442 2.75727 129.314 2.42127 129.314 2.02127C129.314 1.63727 129.442 1.31727 129.698 1.06127C129.97 0.805274 130.306 0.677275 130.706 0.677275C131.09 0.677275 131.418 0.805274 131.69 1.06127C131.962 1.31727 132.098 1.63727 132.098 2.02127C132.098 2.42127 131.962 2.75727 131.69 3.02927C131.418 3.28527 131.09 3.41328 130.706 3.41328ZM129.698 17.9573V6.05327H131.714V17.9573H129.698ZM139.616 18.2453C138.48 18.2453 137.472 17.9893 136.592 17.4773C135.712 16.9493 135.016 16.2213 134.504 15.2933C134.008 14.3653 133.76 13.2693 133.76 12.0053C133.76 10.7573 134.008 9.66928 134.504 8.74128C135 7.79728 135.688 7.06927 136.568 6.55727C137.464 6.02927 138.496 5.76528 139.664 5.76528C140.816 5.76528 141.808 6.02927 142.64 6.55727C143.488 7.06927 144.136 7.74927 144.584 8.59728C145.032 9.44528 145.256 10.3573 145.256 11.3333C145.256 11.5093 145.248 11.6853 145.232 11.8613C145.232 12.0373 145.232 12.2373 145.232 12.4613H135.752C135.8 13.3733 136.008 14.1333 136.376 14.7413C136.76 15.3333 137.232 15.7813 137.792 16.0853C138.368 16.3893 138.976 16.5413 139.616 16.5413C140.448 16.5413 141.144 16.3493 141.704 15.9653C142.264 15.5813 142.672 15.0613 142.928 14.4053H144.92C144.6 15.5093 143.984 16.4293 143.072 17.1653C142.176 17.8853 141.024 18.2453 139.616 18.2453ZM139.616 7.46928C138.656 7.46928 137.8 7.76528 137.048 8.35728C136.312 8.93327 135.888 9.78128 135.776 10.9013H143.264C143.216 9.82927 142.848 8.98927 142.16 8.38127C141.472 7.77328 140.624 7.46928 139.616 7.46928ZM147.665 18.0773C147.265 18.0773 146.929 17.9493 146.657 17.6933C146.401 17.4213 146.273 17.0933 146.273 16.7093C146.273 16.3253 146.401 16.0053 146.657 15.7493C146.929 15.4773 147.265 15.3413 147.665 15.3413C148.049 15.3413 148.369 15.4773 148.625 15.7493C148.897 16.0053 149.033 16.3253 149.033 16.7093C149.033 17.0933 148.897 17.4213 148.625 17.6933C148.369 17.9493 148.049 18.0773 147.665 18.0773Z" fill="black"/>
</svg>
