<svg width="91" height="39" viewBox="0 0 91 39" fill="none" xmlns="http://www.w3.org/2000/svg">
<g clip-path="url(#clip0_447_2905)">
<path d="M0 0H4.26457L7.6321 12.0106L7.70195 11.8084L11.0474 0H15.2458L10.1467 17.9847H5.11748L0 0Z" fill="black"/>
<path d="M16.9958 0.0220947H29.4586V4.06608H21.0839V7.05495H28.7601V11.1357H21.0839V13.9187H29.4586V17.9847H16.9958V0.0220947Z" fill="black"/>
<path d="M32.3776 0.0220856H72.2293C72.9517 0.0153206 73.6623 0.205998 74.2843 0.573538C74.8971 0.933236 75.4043 1.44805 75.7549 2.06614C76.1144 2.70282 76.2996 3.42314 76.2916 4.1543V8.56592C76.3154 9.44666 76.0579 10.3121 75.5564 11.0364C75.0789 11.7107 74.3909 12.2073 73.6005 12.4481L76.6776 17.9958H72.0565L69.0933 12.6503H36.44V17.9847H32.3776V0.0220856ZM71.5785 8.57695C71.6651 8.58078 71.7516 8.56677 71.8326 8.53578C71.9135 8.50479 71.9872 8.45749 72.0491 8.39681C72.1091 8.33441 72.1559 8.26061 72.1869 8.17978C72.2178 8.09895 72.2322 8.01274 72.2293 7.92624V4.77928C72.2365 4.68629 72.2249 4.59279 72.1952 4.50436C72.1655 4.41594 72.1183 4.33439 72.0565 4.26459C71.9932 4.2027 71.9176 4.1547 71.8347 4.12368C71.7518 4.09266 71.6633 4.0793 71.5749 4.08445H36.44V8.57695H71.5785Z" fill="black"/>
<path d="M81.9569 11.0695L77.332 0H81.615L83.9973 6.42258H84.0193L86.2692 0H90.6L86.0266 11.0291V17.9626L81.9826 17.9847L81.9569 11.0695Z" fill="black"/>
<path d="M5.59169 24.9992H1.30139V20.9552H13.9407V24.9992H9.67612V38.8958H5.59169V24.9992Z" fill="black"/>
<path d="M16.0767 20.9552H20.139V28.1314H25.3668V20.9552H29.4586V38.9142H25.3668V32.2195H20.139V38.9068H16.0767V20.9552Z" fill="black"/>
<path d="M32.3776 20.9552H44.8515V24.9992H36.462V27.9881H44.1419V32.032H36.462V34.815H44.8515V38.859H32.3776V20.9552Z" fill="black"/>
<path d="M49.7079 38.315C49.0562 37.9232 48.5128 37.3747 48.1271 36.7194C47.7357 36.0732 47.5296 35.3317 47.5315 34.5761V25.2823C47.5272 24.5183 47.7332 23.7679 48.1271 23.1133C48.5134 22.4586 49.0616 21.9142 49.7189 21.5324C50.3594 21.1516 51.0914 20.9521 51.8365 20.9552H56.1231C56.8715 20.9555 57.6053 21.1615 58.2444 21.5508C58.9034 21.9403 59.4554 22.4873 59.851 23.1427C60.249 23.7879 60.4591 24.5315 60.4575 25.2897V34.5761C60.4608 35.3418 60.2467 36.0927 59.8399 36.7415C59.438 37.3975 58.8781 37.9422 58.2113 38.326C57.5725 38.7048 56.8438 38.9053 56.1011 38.9069H51.8365C51.086 38.9096 50.3493 38.7048 49.7079 38.315ZM55.682 34.8445C55.774 34.8497 55.866 34.8342 55.9512 34.7992C56.0364 34.7642 56.1128 34.7106 56.1746 34.6423C56.2933 34.5147 56.3579 34.346 56.3547 34.1717V25.683C56.3604 25.505 56.2957 25.332 56.1746 25.2014C56.1141 25.1382 56.0408 25.0885 55.9597 25.0556C55.8786 25.0226 55.7915 25.0072 55.704 25.0102H52.2483C52.1622 25.0095 52.0768 25.026 51.9973 25.0589C51.9177 25.0917 51.8455 25.1402 51.785 25.2014C51.7228 25.265 51.6738 25.3403 51.6409 25.423C51.6081 25.5057 51.5921 25.5941 51.5939 25.683V34.1901C51.5913 34.2795 51.6071 34.3684 51.6402 34.4514C51.6734 34.5344 51.7231 34.6098 51.7865 34.6728C51.8499 34.7359 51.9255 34.7853 52.0087 34.8179C52.092 34.8506 52.181 34.8659 52.2703 34.8629L55.682 34.8445Z" fill="black"/>
<path d="M63.384 20.9552H72.2072C72.927 20.9494 73.6352 21.1357 74.2589 21.4951C74.8825 21.8544 75.399 22.3737 75.7549 22.9993C76.1145 23.636 76.2996 24.3563 76.2916 25.0874V29.499C76.316 30.3787 76.0583 31.2431 75.5564 31.9659C75.0803 32.6424 74.3919 33.1405 73.6005 33.3813L76.6777 38.9252H72.3616L69.3985 33.5651H67.4463V38.9068H63.384V20.9552ZM71.5786 29.5027C71.6651 29.5057 71.7513 29.4913 71.8321 29.4603C71.9129 29.4294 71.9867 29.3826 72.0491 29.3226C72.1096 29.2606 72.1568 29.1868 72.1878 29.1059C72.2188 29.025 72.2329 28.9386 72.2293 28.852V25.683C72.2401 25.5029 72.1793 25.3258 72.0602 25.1904C71.9978 25.1265 71.9227 25.0764 71.8397 25.0435C71.7567 25.0106 71.6678 24.9955 71.5786 24.9992H67.4463V29.5027H71.5786Z" fill="black"/>
<path d="M81.9569 31.9842L77.332 20.9258H81.615L83.9973 27.3447H84.0193L86.2656 20.9258H90.5963L86.0266 31.9475L86.0487 38.8848L82.0047 38.9068L81.9569 31.9842Z" fill="black"/>
</g>
<defs>
<clipPath id="clip0_447_2905">
<rect width="90.6" height="38.9068" fill="white"/>
</clipPath>
</defs>
</svg>
